<mxfile host="app.diagrams.net" modified="2023-08-17T09:37:23.026Z" agent="Mozilla/5.0 (Windows NT 10.0; Win64; x64) AppleWebKit/537.36 (KHTML, like Gecko) Chrome/115.0.0.0 Safari/537.36" etag="ybronWxNpqod3ftKElQT" version="21.6.8" type="github">
  <diagram name="第 1 页" id="lJ_pWCJE7K-CfLnkSMyR">
    <mxGraphModel dx="1259" dy="695" grid="1" gridSize="10" guides="1" tooltips="1" connect="1" arrows="1" fold="1" page="1" pageScale="1" pageWidth="827" pageHeight="1169" math="0" shadow="0">
      <root>
        <mxCell id="0" />
        <mxCell id="1" parent="0" />
      </root>
    </mxGraphModel>
  </diagram>
</mxfile>
